<svg xmlns="http://www.w3.org/2000/svg" width="900" height="650" viewBox="0 0 900 650" role="img" aria-labelledby="title desc">
<title id="title">CI performance history</title>
<desc id="desc">Recent successful main branch durations for Lambda tests and Deploy AWS infrastructure.</desc>
<rect width="100%" height="100%" rx="12" fill="#ffffff" stroke="#d0d7de"/>
<text x="32" y="38" font-size="21" font-weight="600" fill="#1f2328" font-family="-apple-system,BlinkMacSystemFont,Segoe UI,sans-serif">CI performance</text>
<text x="32" y="61" font-size="12" fill="#656d76" font-family="-apple-system,BlinkMacSystemFont,Segoe UI,sans-serif">Latest up to 30 successful main runs · workflow duration in seconds</text>
<text x="32" y="104" font-size="17" font-weight="600" fill="#1f2328" font-family="-apple-system,BlinkMacSystemFont,Segoe UI,sans-serif">Lambda tests</text>
<text x="872" y="104" text-anchor="end" font-size="13" font-weight="600" fill="#8250df" font-family="-apple-system,BlinkMacSystemFont,Segoe UI,sans-serif">Latest 36s · #120</text>
<line x1="70" y1="329.0" x2="872" y2="329.0" stroke="#d8dee4" stroke-width="1"/>
<text x="60" y="333.0" text-anchor="end" font-size="11" fill="#656d76" font-family="-apple-system,BlinkMacSystemFont,Segoe UI,sans-serif">0s</text>
<line x1="70" y1="282.8" x2="872" y2="282.8" stroke="#d8dee4" stroke-width="1"/>
<text x="60" y="286.8" text-anchor="end" font-size="11" fill="#656d76" font-family="-apple-system,BlinkMacSystemFont,Segoe UI,sans-serif">30s</text>
<line x1="70" y1="236.5" x2="872" y2="236.5" stroke="#d8dee4" stroke-width="1"/>
<text x="60" y="240.5" text-anchor="end" font-size="11" fill="#656d76" font-family="-apple-system,BlinkMacSystemFont,Segoe UI,sans-serif">60s</text>
<line x1="70" y1="190.2" x2="872" y2="190.2" stroke="#d8dee4" stroke-width="1"/>
<text x="60" y="194.2" text-anchor="end" font-size="11" fill="#656d76" font-family="-apple-system,BlinkMacSystemFont,Segoe UI,sans-serif">90s</text>
<line x1="70" y1="144.0" x2="872" y2="144.0" stroke="#d8dee4" stroke-width="1"/>
<text x="60" y="148.0" text-anchor="end" font-size="11" fill="#656d76" font-family="-apple-system,BlinkMacSystemFont,Segoe UI,sans-serif">120s</text>
<text x="70.0" y="353" text-anchor="middle" font-size="10" fill="#656d76" font-family="-apple-system,BlinkMacSystemFont,Segoe UI,sans-serif">#14</text>
<text x="180.6" y="353" text-anchor="middle" font-size="10" fill="#656d76" font-family="-apple-system,BlinkMacSystemFont,Segoe UI,sans-serif">#23</text>
<text x="291.2" y="353" text-anchor="middle" font-size="10" fill="#656d76" font-family="-apple-system,BlinkMacSystemFont,Segoe UI,sans-serif">#32</text>
<text x="401.9" y="353" text-anchor="middle" font-size="10" fill="#656d76" font-family="-apple-system,BlinkMacSystemFont,Segoe UI,sans-serif">#44</text>
<text x="512.5" y="353" text-anchor="middle" font-size="10" fill="#656d76" font-family="-apple-system,BlinkMacSystemFont,Segoe UI,sans-serif">#52</text>
<text x="623.1" y="353" text-anchor="middle" font-size="10" fill="#656d76" font-family="-apple-system,BlinkMacSystemFont,Segoe UI,sans-serif">#76</text>
<text x="733.7" y="353" text-anchor="middle" font-size="10" fill="#656d76" font-family="-apple-system,BlinkMacSystemFont,Segoe UI,sans-serif">#95</text>
<text x="844.3" y="353" text-anchor="middle" font-size="10" fill="#656d76" font-family="-apple-system,BlinkMacSystemFont,Segoe UI,sans-serif">#116</text>
<text x="872.0" y="353" text-anchor="middle" font-size="10" fill="#656d76" font-family="-apple-system,BlinkMacSystemFont,Segoe UI,sans-serif">#120</text>
<polyline points="70.0,244.2 97.7,239.6 125.3,236.5 153.0,272.0 180.6,276.6 208.3,270.4 235.9,272.0 263.6,279.7 291.2,265.8 318.9,222.6 346.6,282.8 374.2,281.2 401.9,270.4 429.5,275.0 457.2,273.5 484.8,276.6 512.5,270.4 540.1,270.4 567.8,276.6 595.4,270.4 623.1,270.4 650.8,275.0 678.4,268.9 706.1,268.9 733.7,275.0 761.4,278.1 789.0,276.6 816.7,278.1 844.3,270.4 872.0,273.5" fill="none" stroke="#8250df" stroke-width="2.5" stroke-linecap="round" stroke-linejoin="round"/>
<circle cx="70.0" cy="244.2" r="3.3" fill="#8250df"/>
<circle cx="97.7" cy="239.6" r="3.3" fill="#8250df"/>
<circle cx="125.3" cy="236.5" r="3.3" fill="#8250df"/>
<circle cx="153.0" cy="272.0" r="3.3" fill="#8250df"/>
<circle cx="180.6" cy="276.6" r="3.3" fill="#8250df"/>
<circle cx="208.3" cy="270.4" r="3.3" fill="#8250df"/>
<circle cx="235.9" cy="272.0" r="3.3" fill="#8250df"/>
<circle cx="263.6" cy="279.7" r="3.3" fill="#8250df"/>
<circle cx="291.2" cy="265.8" r="3.3" fill="#8250df"/>
<circle cx="318.9" cy="222.6" r="3.3" fill="#8250df"/>
<circle cx="346.6" cy="282.8" r="3.3" fill="#8250df"/>
<circle cx="374.2" cy="281.2" r="3.3" fill="#8250df"/>
<circle cx="401.9" cy="270.4" r="3.3" fill="#8250df"/>
<circle cx="429.5" cy="275.0" r="3.3" fill="#8250df"/>
<circle cx="457.2" cy="273.5" r="3.3" fill="#8250df"/>
<circle cx="484.8" cy="276.6" r="3.3" fill="#8250df"/>
<circle cx="512.5" cy="270.4" r="3.3" fill="#8250df"/>
<circle cx="540.1" cy="270.4" r="3.3" fill="#8250df"/>
<circle cx="567.8" cy="276.6" r="3.3" fill="#8250df"/>
<circle cx="595.4" cy="270.4" r="3.3" fill="#8250df"/>
<circle cx="623.1" cy="270.4" r="3.3" fill="#8250df"/>
<circle cx="650.8" cy="275.0" r="3.3" fill="#8250df"/>
<circle cx="678.4" cy="268.9" r="3.3" fill="#8250df"/>
<circle cx="706.1" cy="268.9" r="3.3" fill="#8250df"/>
<circle cx="733.7" cy="275.0" r="3.3" fill="#8250df"/>
<circle cx="761.4" cy="278.1" r="3.3" fill="#8250df"/>
<circle cx="789.0" cy="276.6" r="3.3" fill="#8250df"/>
<circle cx="816.7" cy="278.1" r="3.3" fill="#8250df"/>
<circle cx="844.3" cy="270.4" r="3.3" fill="#8250df"/>
<circle cx="872.0" cy="273.5" r="3.3" fill="#8250df"/>
<text x="32" y="382" font-size="17" font-weight="600" fill="#1f2328" font-family="-apple-system,BlinkMacSystemFont,Segoe UI,sans-serif">Deploy AWS infrastructure</text>
<text x="872" y="382" text-anchor="end" font-size="13" font-weight="600" fill="#0969da" font-family="-apple-system,BlinkMacSystemFont,Segoe UI,sans-serif">Latest 3m 55s · #49</text>
<line x1="70" y1="607.0" x2="872" y2="607.0" stroke="#d8dee4" stroke-width="1"/>
<text x="60" y="611.0" text-anchor="end" font-size="11" fill="#656d76" font-family="-apple-system,BlinkMacSystemFont,Segoe UI,sans-serif">0s</text>
<line x1="70" y1="560.8" x2="872" y2="560.8" stroke="#d8dee4" stroke-width="1"/>
<text x="60" y="564.8" text-anchor="end" font-size="11" fill="#656d76" font-family="-apple-system,BlinkMacSystemFont,Segoe UI,sans-serif">180s</text>
<line x1="70" y1="514.5" x2="872" y2="514.5" stroke="#d8dee4" stroke-width="1"/>
<text x="60" y="518.5" text-anchor="end" font-size="11" fill="#656d76" font-family="-apple-system,BlinkMacSystemFont,Segoe UI,sans-serif">360s</text>
<line x1="70" y1="468.2" x2="872" y2="468.2" stroke="#d8dee4" stroke-width="1"/>
<text x="60" y="472.2" text-anchor="end" font-size="11" fill="#656d76" font-family="-apple-system,BlinkMacSystemFont,Segoe UI,sans-serif">540s</text>
<line x1="70" y1="422.0" x2="872" y2="422.0" stroke="#d8dee4" stroke-width="1"/>
<text x="60" y="426.0" text-anchor="end" font-size="11" fill="#656d76" font-family="-apple-system,BlinkMacSystemFont,Segoe UI,sans-serif">720s</text>
<text x="70.0" y="631" text-anchor="middle" font-size="10" fill="#656d76" font-family="-apple-system,BlinkMacSystemFont,Segoe UI,sans-serif">#13</text>
<text x="180.6" y="631" text-anchor="middle" font-size="10" fill="#656d76" font-family="-apple-system,BlinkMacSystemFont,Segoe UI,sans-serif">#22</text>
<text x="291.2" y="631" text-anchor="middle" font-size="10" fill="#656d76" font-family="-apple-system,BlinkMacSystemFont,Segoe UI,sans-serif">#26</text>
<text x="401.9" y="631" text-anchor="middle" font-size="10" fill="#656d76" font-family="-apple-system,BlinkMacSystemFont,Segoe UI,sans-serif">#30</text>
<text x="512.5" y="631" text-anchor="middle" font-size="10" fill="#656d76" font-family="-apple-system,BlinkMacSystemFont,Segoe UI,sans-serif">#34</text>
<text x="623.1" y="631" text-anchor="middle" font-size="10" fill="#656d76" font-family="-apple-system,BlinkMacSystemFont,Segoe UI,sans-serif">#38</text>
<text x="733.7" y="631" text-anchor="middle" font-size="10" fill="#656d76" font-family="-apple-system,BlinkMacSystemFont,Segoe UI,sans-serif">#43</text>
<text x="844.3" y="631" text-anchor="middle" font-size="10" fill="#656d76" font-family="-apple-system,BlinkMacSystemFont,Segoe UI,sans-serif">#47</text>
<text x="872.0" y="631" text-anchor="middle" font-size="10" fill="#656d76" font-family="-apple-system,BlinkMacSystemFont,Segoe UI,sans-serif">#49</text>
<polyline points="70.0,564.1 97.7,575.4 125.3,581.6 153.0,574.4 180.6,534.5 208.3,557.2 235.9,561.0 263.6,563.1 291.2,562.8 318.9,557.9 346.6,560.2 374.2,575.9 401.9,559.5 429.5,562.0 457.2,562.8 484.8,563.8 512.5,563.3 540.1,561.3 567.8,556.9 595.4,558.7 623.1,560.0 650.8,453.3 678.4,454.6 706.1,559.5 733.7,451.5 761.4,555.9 789.0,560.5 816.7,540.7 844.3,559.7 872.0,546.6" fill="none" stroke="#0969da" stroke-width="2.5" stroke-linecap="round" stroke-linejoin="round"/>
<circle cx="70.0" cy="564.1" r="3.3" fill="#0969da"/>
<circle cx="97.7" cy="575.4" r="3.3" fill="#0969da"/>
<circle cx="125.3" cy="581.6" r="3.3" fill="#0969da"/>
<circle cx="153.0" cy="574.4" r="3.3" fill="#0969da"/>
<circle cx="180.6" cy="534.5" r="3.3" fill="#0969da"/>
<circle cx="208.3" cy="557.2" r="3.3" fill="#0969da"/>
<circle cx="235.9" cy="561.0" r="3.3" fill="#0969da"/>
<circle cx="263.6" cy="563.1" r="3.3" fill="#0969da"/>
<circle cx="291.2" cy="562.8" r="3.3" fill="#0969da"/>
<circle cx="318.9" cy="557.9" r="3.3" fill="#0969da"/>
<circle cx="346.6" cy="560.2" r="3.3" fill="#0969da"/>
<circle cx="374.2" cy="575.9" r="3.3" fill="#0969da"/>
<circle cx="401.9" cy="559.5" r="3.3" fill="#0969da"/>
<circle cx="429.5" cy="562.0" r="3.3" fill="#0969da"/>
<circle cx="457.2" cy="562.8" r="3.3" fill="#0969da"/>
<circle cx="484.8" cy="563.8" r="3.3" fill="#0969da"/>
<circle cx="512.5" cy="563.3" r="3.3" fill="#0969da"/>
<circle cx="540.1" cy="561.3" r="3.3" fill="#0969da"/>
<circle cx="567.8" cy="556.9" r="3.3" fill="#0969da"/>
<circle cx="595.4" cy="558.7" r="3.3" fill="#0969da"/>
<circle cx="623.1" cy="560.0" r="3.3" fill="#0969da"/>
<circle cx="650.8" cy="453.3" r="3.3" fill="#0969da"/>
<circle cx="678.4" cy="454.6" r="3.3" fill="#0969da"/>
<circle cx="706.1" cy="559.5" r="3.3" fill="#0969da"/>
<circle cx="733.7" cy="451.5" r="3.3" fill="#0969da"/>
<circle cx="761.4" cy="555.9" r="3.3" fill="#0969da"/>
<circle cx="789.0" cy="560.5" r="3.3" fill="#0969da"/>
<circle cx="816.7" cy="540.7" r="3.3" fill="#0969da"/>
<circle cx="844.3" cy="559.7" r="3.3" fill="#0969da"/>
<circle cx="872.0" cy="546.6" r="3.3" fill="#0969da"/>
<text x="876" y="634" text-anchor="end" font-size="10" fill="#8c959f" font-family="-apple-system,BlinkMacSystemFont,Segoe UI,sans-serif">Updated 2026-09-12 17:04 UTC</text>
</svg>
