<svg xmlns="http://www.w3.org/2000/svg" width="900" height="650" viewBox="0 0 900 650" role="img" aria-labelledby="title desc">
<title id="title">CI performance history</title>
<desc id="desc">Recent successful main branch durations for Lambda tests and Deploy AWS infrastructure.</desc>
<rect width="100%" height="100%" rx="12" fill="#ffffff" stroke="#d0d7de"/>
<text x="32" y="38" font-size="21" font-weight="600" fill="#1f2328" font-family="-apple-system,BlinkMacSystemFont,Segoe UI,sans-serif">CI performance</text>
<text x="32" y="61" font-size="12" fill="#656d76" font-family="-apple-system,BlinkMacSystemFont,Segoe UI,sans-serif">Latest up to 30 successful main runs · workflow duration in seconds</text>
<text x="32" y="104" font-size="17" font-weight="600" fill="#1f2328" font-family="-apple-system,BlinkMacSystemFont,Segoe UI,sans-serif">Lambda tests</text>
<text x="872" y="104" text-anchor="end" font-size="13" font-weight="600" fill="#8250df" font-family="-apple-system,BlinkMacSystemFont,Segoe UI,sans-serif">Latest 38s · #54</text>
<line x1="70" y1="329.0" x2="872" y2="329.0" stroke="#d8dee4" stroke-width="1"/>
<text x="60" y="333.0" text-anchor="end" font-size="11" fill="#656d76" font-family="-apple-system,BlinkMacSystemFont,Segoe UI,sans-serif">0s</text>
<line x1="70" y1="282.8" x2="872" y2="282.8" stroke="#d8dee4" stroke-width="1"/>
<text x="60" y="286.8" text-anchor="end" font-size="11" fill="#656d76" font-family="-apple-system,BlinkMacSystemFont,Segoe UI,sans-serif">30s</text>
<line x1="70" y1="236.5" x2="872" y2="236.5" stroke="#d8dee4" stroke-width="1"/>
<text x="60" y="240.5" text-anchor="end" font-size="11" fill="#656d76" font-family="-apple-system,BlinkMacSystemFont,Segoe UI,sans-serif">60s</text>
<line x1="70" y1="190.2" x2="872" y2="190.2" stroke="#d8dee4" stroke-width="1"/>
<text x="60" y="194.2" text-anchor="end" font-size="11" fill="#656d76" font-family="-apple-system,BlinkMacSystemFont,Segoe UI,sans-serif">90s</text>
<line x1="70" y1="144.0" x2="872" y2="144.0" stroke="#d8dee4" stroke-width="1"/>
<text x="60" y="148.0" text-anchor="end" font-size="11" fill="#656d76" font-family="-apple-system,BlinkMacSystemFont,Segoe UI,sans-serif">120s</text>
<text x="70.0" y="353" text-anchor="middle" font-size="10" fill="#656d76" font-family="-apple-system,BlinkMacSystemFont,Segoe UI,sans-serif">#3</text>
<text x="179.4" y="353" text-anchor="middle" font-size="10" fill="#656d76" font-family="-apple-system,BlinkMacSystemFont,Segoe UI,sans-serif">#10</text>
<text x="288.7" y="353" text-anchor="middle" font-size="10" fill="#656d76" font-family="-apple-system,BlinkMacSystemFont,Segoe UI,sans-serif">#17</text>
<text x="398.1" y="353" text-anchor="middle" font-size="10" fill="#656d76" font-family="-apple-system,BlinkMacSystemFont,Segoe UI,sans-serif">#23</text>
<text x="507.5" y="353" text-anchor="middle" font-size="10" fill="#656d76" font-family="-apple-system,BlinkMacSystemFont,Segoe UI,sans-serif">#30</text>
<text x="616.8" y="353" text-anchor="middle" font-size="10" fill="#656d76" font-family="-apple-system,BlinkMacSystemFont,Segoe UI,sans-serif">#39</text>
<text x="726.2" y="353" text-anchor="middle" font-size="10" fill="#656d76" font-family="-apple-system,BlinkMacSystemFont,Segoe UI,sans-serif">#46</text>
<text x="835.5" y="353" text-anchor="middle" font-size="10" fill="#656d76" font-family="-apple-system,BlinkMacSystemFont,Segoe UI,sans-serif">#52</text>
<text x="872.0" y="353" text-anchor="middle" font-size="10" fill="#656d76" font-family="-apple-system,BlinkMacSystemFont,Segoe UI,sans-serif">#54</text>
<polyline points="70.0,241.1 106.5,241.1 142.9,227.2 179.4,235.0 215.8,216.5 252.3,244.2 288.7,239.6 325.2,236.5 361.6,272.0 398.1,276.6 434.5,270.4 471.0,272.0 507.5,279.7 543.9,265.8 580.4,222.6 616.8,282.8 653.3,281.2 689.7,270.4 726.2,275.0 762.6,273.5 799.1,276.6 835.5,270.4 872.0,270.4" fill="none" stroke="#8250df" stroke-width="2.5" stroke-linecap="round" stroke-linejoin="round"/>
<circle cx="70.0" cy="241.1" r="3.3" fill="#8250df"/>
<circle cx="106.5" cy="241.1" r="3.3" fill="#8250df"/>
<circle cx="142.9" cy="227.2" r="3.3" fill="#8250df"/>
<circle cx="179.4" cy="235.0" r="3.3" fill="#8250df"/>
<circle cx="215.8" cy="216.5" r="3.3" fill="#8250df"/>
<circle cx="252.3" cy="244.2" r="3.3" fill="#8250df"/>
<circle cx="288.7" cy="239.6" r="3.3" fill="#8250df"/>
<circle cx="325.2" cy="236.5" r="3.3" fill="#8250df"/>
<circle cx="361.6" cy="272.0" r="3.3" fill="#8250df"/>
<circle cx="398.1" cy="276.6" r="3.3" fill="#8250df"/>
<circle cx="434.5" cy="270.4" r="3.3" fill="#8250df"/>
<circle cx="471.0" cy="272.0" r="3.3" fill="#8250df"/>
<circle cx="507.5" cy="279.7" r="3.3" fill="#8250df"/>
<circle cx="543.9" cy="265.8" r="3.3" fill="#8250df"/>
<circle cx="580.4" cy="222.6" r="3.3" fill="#8250df"/>
<circle cx="616.8" cy="282.8" r="3.3" fill="#8250df"/>
<circle cx="653.3" cy="281.2" r="3.3" fill="#8250df"/>
<circle cx="689.7" cy="270.4" r="3.3" fill="#8250df"/>
<circle cx="726.2" cy="275.0" r="3.3" fill="#8250df"/>
<circle cx="762.6" cy="273.5" r="3.3" fill="#8250df"/>
<circle cx="799.1" cy="276.6" r="3.3" fill="#8250df"/>
<circle cx="835.5" cy="270.4" r="3.3" fill="#8250df"/>
<circle cx="872.0" cy="270.4" r="3.3" fill="#8250df"/>
<text x="32" y="382" font-size="17" font-weight="600" fill="#1f2328" font-family="-apple-system,BlinkMacSystemFont,Segoe UI,sans-serif">Deploy AWS infrastructure</text>
<text x="872" y="382" text-anchor="end" font-size="13" font-weight="600" fill="#0969da" font-family="-apple-system,BlinkMacSystemFont,Segoe UI,sans-serif">Latest 2m 55s · #31</text>
<line x1="70" y1="607.0" x2="872" y2="607.0" stroke="#d8dee4" stroke-width="1"/>
<text x="60" y="611.0" text-anchor="end" font-size="11" fill="#656d76" font-family="-apple-system,BlinkMacSystemFont,Segoe UI,sans-serif">0s</text>
<line x1="70" y1="560.8" x2="872" y2="560.8" stroke="#d8dee4" stroke-width="1"/>
<text x="60" y="564.8" text-anchor="end" font-size="11" fill="#656d76" font-family="-apple-system,BlinkMacSystemFont,Segoe UI,sans-serif">90s</text>
<line x1="70" y1="514.5" x2="872" y2="514.5" stroke="#d8dee4" stroke-width="1"/>
<text x="60" y="518.5" text-anchor="end" font-size="11" fill="#656d76" font-family="-apple-system,BlinkMacSystemFont,Segoe UI,sans-serif">180s</text>
<line x1="70" y1="468.2" x2="872" y2="468.2" stroke="#d8dee4" stroke-width="1"/>
<text x="60" y="472.2" text-anchor="end" font-size="11" fill="#656d76" font-family="-apple-system,BlinkMacSystemFont,Segoe UI,sans-serif">270s</text>
<line x1="70" y1="422.0" x2="872" y2="422.0" stroke="#d8dee4" stroke-width="1"/>
<text x="60" y="426.0" text-anchor="end" font-size="11" fill="#656d76" font-family="-apple-system,BlinkMacSystemFont,Segoe UI,sans-serif">360s</text>
<text x="70.0" y="631" text-anchor="middle" font-size="10" fill="#656d76" font-family="-apple-system,BlinkMacSystemFont,Segoe UI,sans-serif">#1</text>
<text x="174.6" y="631" text-anchor="middle" font-size="10" fill="#656d76" font-family="-apple-system,BlinkMacSystemFont,Segoe UI,sans-serif">#5</text>
<text x="279.2" y="631" text-anchor="middle" font-size="10" fill="#656d76" font-family="-apple-system,BlinkMacSystemFont,Segoe UI,sans-serif">#8</text>
<text x="383.8" y="631" text-anchor="middle" font-size="10" fill="#656d76" font-family="-apple-system,BlinkMacSystemFont,Segoe UI,sans-serif">#12</text>
<text x="488.4" y="631" text-anchor="middle" font-size="10" fill="#656d76" font-family="-apple-system,BlinkMacSystemFont,Segoe UI,sans-serif">#16</text>
<text x="593.0" y="631" text-anchor="middle" font-size="10" fill="#656d76" font-family="-apple-system,BlinkMacSystemFont,Segoe UI,sans-serif">#23</text>
<text x="697.7" y="631" text-anchor="middle" font-size="10" fill="#656d76" font-family="-apple-system,BlinkMacSystemFont,Segoe UI,sans-serif">#26</text>
<text x="802.3" y="631" text-anchor="middle" font-size="10" fill="#656d76" font-family="-apple-system,BlinkMacSystemFont,Segoe UI,sans-serif">#29</text>
<text x="872.0" y="631" text-anchor="middle" font-size="10" fill="#656d76" font-family="-apple-system,BlinkMacSystemFont,Segoe UI,sans-serif">#31</text>
<polyline points="70.0,542.8 104.9,521.7 139.7,513.5 174.6,530.9 209.5,551.5 244.3,540.7 279.2,554.6 314.1,478.5 349.0,537.6 383.8,518.6 418.7,521.2 453.6,543.8 488.4,556.1 523.3,541.7 558.2,462.1 593.0,507.3 627.9,515.0 662.8,519.1 697.7,518.6 732.5,508.8 767.4,513.5 802.3,544.8 837.1,511.9 872.0,517.1" fill="none" stroke="#0969da" stroke-width="2.5" stroke-linecap="round" stroke-linejoin="round"/>
<circle cx="70.0" cy="542.8" r="3.3" fill="#0969da"/>
<circle cx="104.9" cy="521.7" r="3.3" fill="#0969da"/>
<circle cx="139.7" cy="513.5" r="3.3" fill="#0969da"/>
<circle cx="174.6" cy="530.9" r="3.3" fill="#0969da"/>
<circle cx="209.5" cy="551.5" r="3.3" fill="#0969da"/>
<circle cx="244.3" cy="540.7" r="3.3" fill="#0969da"/>
<circle cx="279.2" cy="554.6" r="3.3" fill="#0969da"/>
<circle cx="314.1" cy="478.5" r="3.3" fill="#0969da"/>
<circle cx="349.0" cy="537.6" r="3.3" fill="#0969da"/>
<circle cx="383.8" cy="518.6" r="3.3" fill="#0969da"/>
<circle cx="418.7" cy="521.2" r="3.3" fill="#0969da"/>
<circle cx="453.6" cy="543.8" r="3.3" fill="#0969da"/>
<circle cx="488.4" cy="556.1" r="3.3" fill="#0969da"/>
<circle cx="523.3" cy="541.7" r="3.3" fill="#0969da"/>
<circle cx="558.2" cy="462.1" r="3.3" fill="#0969da"/>
<circle cx="593.0" cy="507.3" r="3.3" fill="#0969da"/>
<circle cx="627.9" cy="515.0" r="3.3" fill="#0969da"/>
<circle cx="662.8" cy="519.1" r="3.3" fill="#0969da"/>
<circle cx="697.7" cy="518.6" r="3.3" fill="#0969da"/>
<circle cx="732.5" cy="508.8" r="3.3" fill="#0969da"/>
<circle cx="767.4" cy="513.5" r="3.3" fill="#0969da"/>
<circle cx="802.3" cy="544.8" r="3.3" fill="#0969da"/>
<circle cx="837.1" cy="511.9" r="3.3" fill="#0969da"/>
<circle cx="872.0" cy="517.1" r="3.3" fill="#0969da"/>
<text x="876" y="634" text-anchor="end" font-size="10" fill="#8c959f" font-family="-apple-system,BlinkMacSystemFont,Segoe UI,sans-serif">Updated 2026-09-11 05:23 UTC</text>
</svg>
