<svg xmlns="http://www.w3.org/2000/svg" width="900" height="650" viewBox="0 0 900 650" role="img" aria-labelledby="title desc">
<title id="title">CI performance history</title>
<desc id="desc">Recent successful main branch durations for Lambda tests and Deploy AWS infrastructure.</desc>
<rect width="100%" height="100%" rx="12" fill="#ffffff" stroke="#d0d7de"/>
<text x="32" y="38" font-size="21" font-weight="600" fill="#1f2328" font-family="-apple-system,BlinkMacSystemFont,Segoe UI,sans-serif">CI performance</text>
<text x="32" y="61" font-size="12" fill="#656d76" font-family="-apple-system,BlinkMacSystemFont,Segoe UI,sans-serif">Latest up to 30 successful main runs · workflow duration in seconds</text>
<text x="32" y="104" font-size="17" font-weight="600" fill="#1f2328" font-family="-apple-system,BlinkMacSystemFont,Segoe UI,sans-serif">Lambda tests</text>
<text x="872" y="104" text-anchor="end" font-size="13" font-weight="600" fill="#8250df" font-family="-apple-system,BlinkMacSystemFont,Segoe UI,sans-serif">Latest 39s · #86</text>
<line x1="70" y1="329.0" x2="872" y2="329.0" stroke="#d8dee4" stroke-width="1"/>
<text x="60" y="333.0" text-anchor="end" font-size="11" fill="#656d76" font-family="-apple-system,BlinkMacSystemFont,Segoe UI,sans-serif">0s</text>
<line x1="70" y1="282.8" x2="872" y2="282.8" stroke="#d8dee4" stroke-width="1"/>
<text x="60" y="286.8" text-anchor="end" font-size="11" fill="#656d76" font-family="-apple-system,BlinkMacSystemFont,Segoe UI,sans-serif">30s</text>
<line x1="70" y1="236.5" x2="872" y2="236.5" stroke="#d8dee4" stroke-width="1"/>
<text x="60" y="240.5" text-anchor="end" font-size="11" fill="#656d76" font-family="-apple-system,BlinkMacSystemFont,Segoe UI,sans-serif">60s</text>
<line x1="70" y1="190.2" x2="872" y2="190.2" stroke="#d8dee4" stroke-width="1"/>
<text x="60" y="194.2" text-anchor="end" font-size="11" fill="#656d76" font-family="-apple-system,BlinkMacSystemFont,Segoe UI,sans-serif">90s</text>
<line x1="70" y1="144.0" x2="872" y2="144.0" stroke="#d8dee4" stroke-width="1"/>
<text x="60" y="148.0" text-anchor="end" font-size="11" fill="#656d76" font-family="-apple-system,BlinkMacSystemFont,Segoe UI,sans-serif">120s</text>
<text x="70.0" y="353" text-anchor="middle" font-size="10" fill="#656d76" font-family="-apple-system,BlinkMacSystemFont,Segoe UI,sans-serif">#3</text>
<text x="188.8" y="353" text-anchor="middle" font-size="10" fill="#656d76" font-family="-apple-system,BlinkMacSystemFont,Segoe UI,sans-serif">#12</text>
<text x="307.6" y="353" text-anchor="middle" font-size="10" fill="#656d76" font-family="-apple-system,BlinkMacSystemFont,Segoe UI,sans-serif">#21</text>
<text x="426.4" y="353" text-anchor="middle" font-size="10" fill="#656d76" font-family="-apple-system,BlinkMacSystemFont,Segoe UI,sans-serif">#30</text>
<text x="545.3" y="353" text-anchor="middle" font-size="10" fill="#656d76" font-family="-apple-system,BlinkMacSystemFont,Segoe UI,sans-serif">#41</text>
<text x="664.1" y="353" text-anchor="middle" font-size="10" fill="#656d76" font-family="-apple-system,BlinkMacSystemFont,Segoe UI,sans-serif">#50</text>
<text x="782.9" y="353" text-anchor="middle" font-size="10" fill="#656d76" font-family="-apple-system,BlinkMacSystemFont,Segoe UI,sans-serif">#71</text>
<text x="872.0" y="353" text-anchor="middle" font-size="10" fill="#656d76" font-family="-apple-system,BlinkMacSystemFont,Segoe UI,sans-serif">#86</text>
<polyline points="70.0,241.1 99.7,241.1 129.4,227.2 159.1,235.0 188.8,216.5 218.5,244.2 248.2,239.6 277.9,236.5 307.6,272.0 337.3,276.6 367.0,270.4 396.7,272.0 426.4,279.7 456.1,265.8 485.9,222.6 515.6,282.8 545.3,281.2 575.0,270.4 604.7,275.0 634.4,273.5 664.1,276.6 693.8,270.4 723.5,270.4 753.2,276.6 782.9,270.4 812.6,270.4 842.3,275.0 872.0,268.9" fill="none" stroke="#8250df" stroke-width="2.5" stroke-linecap="round" stroke-linejoin="round"/>
<circle cx="70.0" cy="241.1" r="3.3" fill="#8250df"/>
<circle cx="99.7" cy="241.1" r="3.3" fill="#8250df"/>
<circle cx="129.4" cy="227.2" r="3.3" fill="#8250df"/>
<circle cx="159.1" cy="235.0" r="3.3" fill="#8250df"/>
<circle cx="188.8" cy="216.5" r="3.3" fill="#8250df"/>
<circle cx="218.5" cy="244.2" r="3.3" fill="#8250df"/>
<circle cx="248.2" cy="239.6" r="3.3" fill="#8250df"/>
<circle cx="277.9" cy="236.5" r="3.3" fill="#8250df"/>
<circle cx="307.6" cy="272.0" r="3.3" fill="#8250df"/>
<circle cx="337.3" cy="276.6" r="3.3" fill="#8250df"/>
<circle cx="367.0" cy="270.4" r="3.3" fill="#8250df"/>
<circle cx="396.7" cy="272.0" r="3.3" fill="#8250df"/>
<circle cx="426.4" cy="279.7" r="3.3" fill="#8250df"/>
<circle cx="456.1" cy="265.8" r="3.3" fill="#8250df"/>
<circle cx="485.9" cy="222.6" r="3.3" fill="#8250df"/>
<circle cx="515.6" cy="282.8" r="3.3" fill="#8250df"/>
<circle cx="545.3" cy="281.2" r="3.3" fill="#8250df"/>
<circle cx="575.0" cy="270.4" r="3.3" fill="#8250df"/>
<circle cx="604.7" cy="275.0" r="3.3" fill="#8250df"/>
<circle cx="634.4" cy="273.5" r="3.3" fill="#8250df"/>
<circle cx="664.1" cy="276.6" r="3.3" fill="#8250df"/>
<circle cx="693.8" cy="270.4" r="3.3" fill="#8250df"/>
<circle cx="723.5" cy="270.4" r="3.3" fill="#8250df"/>
<circle cx="753.2" cy="276.6" r="3.3" fill="#8250df"/>
<circle cx="782.9" cy="270.4" r="3.3" fill="#8250df"/>
<circle cx="812.6" cy="270.4" r="3.3" fill="#8250df"/>
<circle cx="842.3" cy="275.0" r="3.3" fill="#8250df"/>
<circle cx="872.0" cy="268.9" r="3.3" fill="#8250df"/>
<text x="32" y="382" font-size="17" font-weight="600" fill="#1f2328" font-family="-apple-system,BlinkMacSystemFont,Segoe UI,sans-serif">Deploy AWS infrastructure</text>
<text x="872" y="382" text-anchor="end" font-size="13" font-weight="600" fill="#0969da" font-family="-apple-system,BlinkMacSystemFont,Segoe UI,sans-serif">Latest 9m 53s · #40</text>
<line x1="70" y1="607.0" x2="872" y2="607.0" stroke="#d8dee4" stroke-width="1"/>
<text x="60" y="611.0" text-anchor="end" font-size="11" fill="#656d76" font-family="-apple-system,BlinkMacSystemFont,Segoe UI,sans-serif">0s</text>
<line x1="70" y1="560.8" x2="872" y2="560.8" stroke="#d8dee4" stroke-width="1"/>
<text x="60" y="564.8" text-anchor="end" font-size="11" fill="#656d76" font-family="-apple-system,BlinkMacSystemFont,Segoe UI,sans-serif">180s</text>
<line x1="70" y1="514.5" x2="872" y2="514.5" stroke="#d8dee4" stroke-width="1"/>
<text x="60" y="518.5" text-anchor="end" font-size="11" fill="#656d76" font-family="-apple-system,BlinkMacSystemFont,Segoe UI,sans-serif">360s</text>
<line x1="70" y1="468.2" x2="872" y2="468.2" stroke="#d8dee4" stroke-width="1"/>
<text x="60" y="472.2" text-anchor="end" font-size="11" fill="#656d76" font-family="-apple-system,BlinkMacSystemFont,Segoe UI,sans-serif">540s</text>
<line x1="70" y1="422.0" x2="872" y2="422.0" stroke="#d8dee4" stroke-width="1"/>
<text x="60" y="426.0" text-anchor="end" font-size="11" fill="#656d76" font-family="-apple-system,BlinkMacSystemFont,Segoe UI,sans-serif">720s</text>
<text x="70.0" y="631" text-anchor="middle" font-size="10" fill="#656d76" font-family="-apple-system,BlinkMacSystemFont,Segoe UI,sans-serif">#5</text>
<text x="180.6" y="631" text-anchor="middle" font-size="10" fill="#656d76" font-family="-apple-system,BlinkMacSystemFont,Segoe UI,sans-serif">#10</text>
<text x="291.2" y="631" text-anchor="middle" font-size="10" fill="#656d76" font-family="-apple-system,BlinkMacSystemFont,Segoe UI,sans-serif">#14</text>
<text x="401.9" y="631" text-anchor="middle" font-size="10" fill="#656d76" font-family="-apple-system,BlinkMacSystemFont,Segoe UI,sans-serif">#23</text>
<text x="512.5" y="631" text-anchor="middle" font-size="10" fill="#656d76" font-family="-apple-system,BlinkMacSystemFont,Segoe UI,sans-serif">#27</text>
<text x="623.1" y="631" text-anchor="middle" font-size="10" fill="#656d76" font-family="-apple-system,BlinkMacSystemFont,Segoe UI,sans-serif">#31</text>
<text x="733.7" y="631" text-anchor="middle" font-size="10" fill="#656d76" font-family="-apple-system,BlinkMacSystemFont,Segoe UI,sans-serif">#35</text>
<text x="844.3" y="631" text-anchor="middle" font-size="10" fill="#656d76" font-family="-apple-system,BlinkMacSystemFont,Segoe UI,sans-serif">#39</text>
<text x="872.0" y="631" text-anchor="middle" font-size="10" fill="#656d76" font-family="-apple-system,BlinkMacSystemFont,Segoe UI,sans-serif">#40</text>
<polyline points="70.0,569.0 97.7,579.2 125.3,573.9 153.0,580.8 180.6,542.8 208.3,572.3 235.9,562.8 263.6,564.1 291.2,575.4 318.9,581.6 346.6,574.4 374.2,534.5 401.9,557.2 429.5,561.0 457.2,563.1 484.8,562.8 512.5,557.9 540.1,560.2 567.8,575.9 595.4,559.5 623.1,562.0 650.8,562.8 678.4,563.8 706.1,563.3 733.7,561.3 761.4,556.9 789.0,558.7 816.7,560.0 844.3,453.3 872.0,454.6" fill="none" stroke="#0969da" stroke-width="2.5" stroke-linecap="round" stroke-linejoin="round"/>
<circle cx="70.0" cy="569.0" r="3.3" fill="#0969da"/>
<circle cx="97.7" cy="579.2" r="3.3" fill="#0969da"/>
<circle cx="125.3" cy="573.9" r="3.3" fill="#0969da"/>
<circle cx="153.0" cy="580.8" r="3.3" fill="#0969da"/>
<circle cx="180.6" cy="542.8" r="3.3" fill="#0969da"/>
<circle cx="208.3" cy="572.3" r="3.3" fill="#0969da"/>
<circle cx="235.9" cy="562.8" r="3.3" fill="#0969da"/>
<circle cx="263.6" cy="564.1" r="3.3" fill="#0969da"/>
<circle cx="291.2" cy="575.4" r="3.3" fill="#0969da"/>
<circle cx="318.9" cy="581.6" r="3.3" fill="#0969da"/>
<circle cx="346.6" cy="574.4" r="3.3" fill="#0969da"/>
<circle cx="374.2" cy="534.5" r="3.3" fill="#0969da"/>
<circle cx="401.9" cy="557.2" r="3.3" fill="#0969da"/>
<circle cx="429.5" cy="561.0" r="3.3" fill="#0969da"/>
<circle cx="457.2" cy="563.1" r="3.3" fill="#0969da"/>
<circle cx="484.8" cy="562.8" r="3.3" fill="#0969da"/>
<circle cx="512.5" cy="557.9" r="3.3" fill="#0969da"/>
<circle cx="540.1" cy="560.2" r="3.3" fill="#0969da"/>
<circle cx="567.8" cy="575.9" r="3.3" fill="#0969da"/>
<circle cx="595.4" cy="559.5" r="3.3" fill="#0969da"/>
<circle cx="623.1" cy="562.0" r="3.3" fill="#0969da"/>
<circle cx="650.8" cy="562.8" r="3.3" fill="#0969da"/>
<circle cx="678.4" cy="563.8" r="3.3" fill="#0969da"/>
<circle cx="706.1" cy="563.3" r="3.3" fill="#0969da"/>
<circle cx="733.7" cy="561.3" r="3.3" fill="#0969da"/>
<circle cx="761.4" cy="556.9" r="3.3" fill="#0969da"/>
<circle cx="789.0" cy="558.7" r="3.3" fill="#0969da"/>
<circle cx="816.7" cy="560.0" r="3.3" fill="#0969da"/>
<circle cx="844.3" cy="453.3" r="3.3" fill="#0969da"/>
<circle cx="872.0" cy="454.6" r="3.3" fill="#0969da"/>
<text x="876" y="634" text-anchor="end" font-size="10" fill="#8c959f" font-family="-apple-system,BlinkMacSystemFont,Segoe UI,sans-serif">Updated 2026-09-12 03:43 UTC</text>
</svg>
