<svg xmlns="http://www.w3.org/2000/svg" width="900" height="650" viewBox="0 0 900 650" role="img" aria-labelledby="title desc">
<title id="title">CI performance history</title>
<desc id="desc">Recent successful main branch durations for Lambda tests and Deploy AWS infrastructure.</desc>
<rect width="100%" height="100%" rx="12" fill="#ffffff" stroke="#d0d7de"/>
<text x="32" y="38" font-size="21" font-weight="600" fill="#1f2328" font-family="-apple-system,BlinkMacSystemFont,Segoe UI,sans-serif">CI performance</text>
<text x="32" y="61" font-size="12" fill="#656d76" font-family="-apple-system,BlinkMacSystemFont,Segoe UI,sans-serif">Latest up to 30 successful main runs · workflow duration in seconds</text>
<text x="32" y="104" font-size="17" font-weight="600" fill="#1f2328" font-family="-apple-system,BlinkMacSystemFont,Segoe UI,sans-serif">Lambda tests</text>
<text x="872" y="104" text-anchor="end" font-size="13" font-weight="600" fill="#8250df" font-family="-apple-system,BlinkMacSystemFont,Segoe UI,sans-serif">Latest 30s · #151</text>
<line x1="70" y1="329.0" x2="872" y2="329.0" stroke="#d8dee4" stroke-width="1"/>
<text x="60" y="333.0" text-anchor="end" font-size="11" fill="#656d76" font-family="-apple-system,BlinkMacSystemFont,Segoe UI,sans-serif">0s</text>
<line x1="70" y1="282.8" x2="872" y2="282.8" stroke="#d8dee4" stroke-width="1"/>
<text x="60" y="286.8" text-anchor="end" font-size="11" fill="#656d76" font-family="-apple-system,BlinkMacSystemFont,Segoe UI,sans-serif">30s</text>
<line x1="70" y1="236.5" x2="872" y2="236.5" stroke="#d8dee4" stroke-width="1"/>
<text x="60" y="240.5" text-anchor="end" font-size="11" fill="#656d76" font-family="-apple-system,BlinkMacSystemFont,Segoe UI,sans-serif">60s</text>
<line x1="70" y1="190.2" x2="872" y2="190.2" stroke="#d8dee4" stroke-width="1"/>
<text x="60" y="194.2" text-anchor="end" font-size="11" fill="#656d76" font-family="-apple-system,BlinkMacSystemFont,Segoe UI,sans-serif">90s</text>
<line x1="70" y1="144.0" x2="872" y2="144.0" stroke="#d8dee4" stroke-width="1"/>
<text x="60" y="148.0" text-anchor="end" font-size="11" fill="#656d76" font-family="-apple-system,BlinkMacSystemFont,Segoe UI,sans-serif">120s</text>
<text x="70.0" y="353" text-anchor="middle" font-size="10" fill="#656d76" font-family="-apple-system,BlinkMacSystemFont,Segoe UI,sans-serif">#17</text>
<text x="180.6" y="353" text-anchor="middle" font-size="10" fill="#656d76" font-family="-apple-system,BlinkMacSystemFont,Segoe UI,sans-serif">#25</text>
<text x="291.2" y="353" text-anchor="middle" font-size="10" fill="#656d76" font-family="-apple-system,BlinkMacSystemFont,Segoe UI,sans-serif">#37</text>
<text x="401.9" y="353" text-anchor="middle" font-size="10" fill="#656d76" font-family="-apple-system,BlinkMacSystemFont,Segoe UI,sans-serif">#46</text>
<text x="512.5" y="353" text-anchor="middle" font-size="10" fill="#656d76" font-family="-apple-system,BlinkMacSystemFont,Segoe UI,sans-serif">#54</text>
<text x="623.1" y="353" text-anchor="middle" font-size="10" fill="#656d76" font-family="-apple-system,BlinkMacSystemFont,Segoe UI,sans-serif">#84</text>
<text x="733.7" y="353" text-anchor="middle" font-size="10" fill="#656d76" font-family="-apple-system,BlinkMacSystemFont,Segoe UI,sans-serif">#110</text>
<text x="844.3" y="353" text-anchor="middle" font-size="10" fill="#656d76" font-family="-apple-system,BlinkMacSystemFont,Segoe UI,sans-serif">#120</text>
<text x="872.0" y="353" text-anchor="middle" font-size="10" fill="#656d76" font-family="-apple-system,BlinkMacSystemFont,Segoe UI,sans-serif">#151</text>
<polyline points="70.0,239.6 97.7,236.5 125.3,272.0 153.0,276.6 180.6,270.4 208.3,272.0 235.9,279.7 263.6,265.8 291.2,222.6 318.9,282.8 346.6,281.2 374.2,270.4 401.9,275.0 429.5,273.5 457.2,276.6 484.8,270.4 512.5,270.4 540.1,276.6 567.8,270.4 595.4,270.4 623.1,275.0 650.8,268.9 678.4,268.9 706.1,275.0 733.7,278.1 761.4,276.6 789.0,278.1 816.7,270.4 844.3,273.5 872.0,282.8" fill="none" stroke="#8250df" stroke-width="2.5" stroke-linecap="round" stroke-linejoin="round"/>
<circle cx="70.0" cy="239.6" r="3.3" fill="#8250df"/>
<circle cx="97.7" cy="236.5" r="3.3" fill="#8250df"/>
<circle cx="125.3" cy="272.0" r="3.3" fill="#8250df"/>
<circle cx="153.0" cy="276.6" r="3.3" fill="#8250df"/>
<circle cx="180.6" cy="270.4" r="3.3" fill="#8250df"/>
<circle cx="208.3" cy="272.0" r="3.3" fill="#8250df"/>
<circle cx="235.9" cy="279.7" r="3.3" fill="#8250df"/>
<circle cx="263.6" cy="265.8" r="3.3" fill="#8250df"/>
<circle cx="291.2" cy="222.6" r="3.3" fill="#8250df"/>
<circle cx="318.9" cy="282.8" r="3.3" fill="#8250df"/>
<circle cx="346.6" cy="281.2" r="3.3" fill="#8250df"/>
<circle cx="374.2" cy="270.4" r="3.3" fill="#8250df"/>
<circle cx="401.9" cy="275.0" r="3.3" fill="#8250df"/>
<circle cx="429.5" cy="273.5" r="3.3" fill="#8250df"/>
<circle cx="457.2" cy="276.6" r="3.3" fill="#8250df"/>
<circle cx="484.8" cy="270.4" r="3.3" fill="#8250df"/>
<circle cx="512.5" cy="270.4" r="3.3" fill="#8250df"/>
<circle cx="540.1" cy="276.6" r="3.3" fill="#8250df"/>
<circle cx="567.8" cy="270.4" r="3.3" fill="#8250df"/>
<circle cx="595.4" cy="270.4" r="3.3" fill="#8250df"/>
<circle cx="623.1" cy="275.0" r="3.3" fill="#8250df"/>
<circle cx="650.8" cy="268.9" r="3.3" fill="#8250df"/>
<circle cx="678.4" cy="268.9" r="3.3" fill="#8250df"/>
<circle cx="706.1" cy="275.0" r="3.3" fill="#8250df"/>
<circle cx="733.7" cy="278.1" r="3.3" fill="#8250df"/>
<circle cx="761.4" cy="276.6" r="3.3" fill="#8250df"/>
<circle cx="789.0" cy="278.1" r="3.3" fill="#8250df"/>
<circle cx="816.7" cy="270.4" r="3.3" fill="#8250df"/>
<circle cx="844.3" cy="273.5" r="3.3" fill="#8250df"/>
<circle cx="872.0" cy="282.8" r="3.3" fill="#8250df"/>
<text x="32" y="382" font-size="17" font-weight="600" fill="#1f2328" font-family="-apple-system,BlinkMacSystemFont,Segoe UI,sans-serif">Deploy AWS infrastructure</text>
<text x="872" y="382" text-anchor="end" font-size="13" font-weight="600" fill="#0969da" font-family="-apple-system,BlinkMacSystemFont,Segoe UI,sans-serif">Latest 5m 24s · #54</text>
<line x1="70" y1="607.0" x2="872" y2="607.0" stroke="#d8dee4" stroke-width="1"/>
<text x="60" y="611.0" text-anchor="end" font-size="11" fill="#656d76" font-family="-apple-system,BlinkMacSystemFont,Segoe UI,sans-serif">0s</text>
<line x1="70" y1="560.8" x2="872" y2="560.8" stroke="#d8dee4" stroke-width="1"/>
<text x="60" y="564.8" text-anchor="end" font-size="11" fill="#656d76" font-family="-apple-system,BlinkMacSystemFont,Segoe UI,sans-serif">180s</text>
<line x1="70" y1="514.5" x2="872" y2="514.5" stroke="#d8dee4" stroke-width="1"/>
<text x="60" y="518.5" text-anchor="end" font-size="11" fill="#656d76" font-family="-apple-system,BlinkMacSystemFont,Segoe UI,sans-serif">360s</text>
<line x1="70" y1="468.2" x2="872" y2="468.2" stroke="#d8dee4" stroke-width="1"/>
<text x="60" y="472.2" text-anchor="end" font-size="11" fill="#656d76" font-family="-apple-system,BlinkMacSystemFont,Segoe UI,sans-serif">540s</text>
<line x1="70" y1="422.0" x2="872" y2="422.0" stroke="#d8dee4" stroke-width="1"/>
<text x="60" y="426.0" text-anchor="end" font-size="11" fill="#656d76" font-family="-apple-system,BlinkMacSystemFont,Segoe UI,sans-serif">720s</text>
<text x="70.0" y="631" text-anchor="middle" font-size="10" fill="#656d76" font-family="-apple-system,BlinkMacSystemFont,Segoe UI,sans-serif">#23</text>
<text x="180.6" y="631" text-anchor="middle" font-size="10" fill="#656d76" font-family="-apple-system,BlinkMacSystemFont,Segoe UI,sans-serif">#27</text>
<text x="291.2" y="631" text-anchor="middle" font-size="10" fill="#656d76" font-family="-apple-system,BlinkMacSystemFont,Segoe UI,sans-serif">#31</text>
<text x="401.9" y="631" text-anchor="middle" font-size="10" fill="#656d76" font-family="-apple-system,BlinkMacSystemFont,Segoe UI,sans-serif">#35</text>
<text x="512.5" y="631" text-anchor="middle" font-size="10" fill="#656d76" font-family="-apple-system,BlinkMacSystemFont,Segoe UI,sans-serif">#39</text>
<text x="623.1" y="631" text-anchor="middle" font-size="10" fill="#656d76" font-family="-apple-system,BlinkMacSystemFont,Segoe UI,sans-serif">#44</text>
<text x="733.7" y="631" text-anchor="middle" font-size="10" fill="#656d76" font-family="-apple-system,BlinkMacSystemFont,Segoe UI,sans-serif">#49</text>
<text x="844.3" y="631" text-anchor="middle" font-size="10" fill="#656d76" font-family="-apple-system,BlinkMacSystemFont,Segoe UI,sans-serif">#53</text>
<text x="872.0" y="631" text-anchor="middle" font-size="10" fill="#656d76" font-family="-apple-system,BlinkMacSystemFont,Segoe UI,sans-serif">#54</text>
<polyline points="70.0,557.2 97.7,561.0 125.3,563.1 153.0,562.8 180.6,557.9 208.3,560.2 235.9,575.9 263.6,559.5 291.2,562.0 318.9,562.8 346.6,563.8 374.2,563.3 401.9,561.3 429.5,556.9 457.2,558.7 484.8,560.0 512.5,453.3 540.1,454.6 567.8,559.5 595.4,451.5 623.1,555.9 650.8,560.5 678.4,540.7 706.1,559.7 733.7,546.6 761.4,546.9 789.0,559.0 816.7,557.9 844.3,559.0 872.0,523.8" fill="none" stroke="#0969da" stroke-width="2.5" stroke-linecap="round" stroke-linejoin="round"/>
<circle cx="70.0" cy="557.2" r="3.3" fill="#0969da"/>
<circle cx="97.7" cy="561.0" r="3.3" fill="#0969da"/>
<circle cx="125.3" cy="563.1" r="3.3" fill="#0969da"/>
<circle cx="153.0" cy="562.8" r="3.3" fill="#0969da"/>
<circle cx="180.6" cy="557.9" r="3.3" fill="#0969da"/>
<circle cx="208.3" cy="560.2" r="3.3" fill="#0969da"/>
<circle cx="235.9" cy="575.9" r="3.3" fill="#0969da"/>
<circle cx="263.6" cy="559.5" r="3.3" fill="#0969da"/>
<circle cx="291.2" cy="562.0" r="3.3" fill="#0969da"/>
<circle cx="318.9" cy="562.8" r="3.3" fill="#0969da"/>
<circle cx="346.6" cy="563.8" r="3.3" fill="#0969da"/>
<circle cx="374.2" cy="563.3" r="3.3" fill="#0969da"/>
<circle cx="401.9" cy="561.3" r="3.3" fill="#0969da"/>
<circle cx="429.5" cy="556.9" r="3.3" fill="#0969da"/>
<circle cx="457.2" cy="558.7" r="3.3" fill="#0969da"/>
<circle cx="484.8" cy="560.0" r="3.3" fill="#0969da"/>
<circle cx="512.5" cy="453.3" r="3.3" fill="#0969da"/>
<circle cx="540.1" cy="454.6" r="3.3" fill="#0969da"/>
<circle cx="567.8" cy="559.5" r="3.3" fill="#0969da"/>
<circle cx="595.4" cy="451.5" r="3.3" fill="#0969da"/>
<circle cx="623.1" cy="555.9" r="3.3" fill="#0969da"/>
<circle cx="650.8" cy="560.5" r="3.3" fill="#0969da"/>
<circle cx="678.4" cy="540.7" r="3.3" fill="#0969da"/>
<circle cx="706.1" cy="559.7" r="3.3" fill="#0969da"/>
<circle cx="733.7" cy="546.6" r="3.3" fill="#0969da"/>
<circle cx="761.4" cy="546.9" r="3.3" fill="#0969da"/>
<circle cx="789.0" cy="559.0" r="3.3" fill="#0969da"/>
<circle cx="816.7" cy="557.9" r="3.3" fill="#0969da"/>
<circle cx="844.3" cy="559.0" r="3.3" fill="#0969da"/>
<circle cx="872.0" cy="523.8" r="3.3" fill="#0969da"/>
<text x="876" y="634" text-anchor="end" font-size="10" fill="#8c959f" font-family="-apple-system,BlinkMacSystemFont,Segoe UI,sans-serif">Updated 2026-09-12 18:54 UTC</text>
</svg>
