<svg xmlns="http://www.w3.org/2000/svg" width="900" height="650" viewBox="0 0 900 650" role="img" aria-labelledby="title desc">
<title id="title">CI performance history</title>
<desc id="desc">Recent successful main branch durations for Lambda tests and Deploy AWS infrastructure.</desc>
<rect width="100%" height="100%" rx="12" fill="#ffffff" stroke="#d0d7de"/>
<text x="32" y="38" font-size="21" font-weight="600" fill="#1f2328" font-family="-apple-system,BlinkMacSystemFont,Segoe UI,sans-serif">CI performance</text>
<text x="32" y="61" font-size="12" fill="#656d76" font-family="-apple-system,BlinkMacSystemFont,Segoe UI,sans-serif">Latest up to 30 successful main runs · workflow duration in seconds</text>
<text x="32" y="104" font-size="17" font-weight="600" fill="#1f2328" font-family="-apple-system,BlinkMacSystemFont,Segoe UI,sans-serif">Lambda tests</text>
<text x="872" y="104" text-anchor="end" font-size="13" font-weight="600" fill="#8250df" font-family="-apple-system,BlinkMacSystemFont,Segoe UI,sans-serif">Latest 38s · #76</text>
<line x1="70" y1="329.0" x2="872" y2="329.0" stroke="#d8dee4" stroke-width="1"/>
<text x="60" y="333.0" text-anchor="end" font-size="11" fill="#656d76" font-family="-apple-system,BlinkMacSystemFont,Segoe UI,sans-serif">0s</text>
<line x1="70" y1="282.8" x2="872" y2="282.8" stroke="#d8dee4" stroke-width="1"/>
<text x="60" y="286.8" text-anchor="end" font-size="11" fill="#656d76" font-family="-apple-system,BlinkMacSystemFont,Segoe UI,sans-serif">30s</text>
<line x1="70" y1="236.5" x2="872" y2="236.5" stroke="#d8dee4" stroke-width="1"/>
<text x="60" y="240.5" text-anchor="end" font-size="11" fill="#656d76" font-family="-apple-system,BlinkMacSystemFont,Segoe UI,sans-serif">60s</text>
<line x1="70" y1="190.2" x2="872" y2="190.2" stroke="#d8dee4" stroke-width="1"/>
<text x="60" y="194.2" text-anchor="end" font-size="11" fill="#656d76" font-family="-apple-system,BlinkMacSystemFont,Segoe UI,sans-serif">90s</text>
<line x1="70" y1="144.0" x2="872" y2="144.0" stroke="#d8dee4" stroke-width="1"/>
<text x="60" y="148.0" text-anchor="end" font-size="11" fill="#656d76" font-family="-apple-system,BlinkMacSystemFont,Segoe UI,sans-serif">120s</text>
<text x="70.0" y="353" text-anchor="middle" font-size="10" fill="#656d76" font-family="-apple-system,BlinkMacSystemFont,Segoe UI,sans-serif">#3</text>
<text x="198.3" y="353" text-anchor="middle" font-size="10" fill="#656d76" font-family="-apple-system,BlinkMacSystemFont,Segoe UI,sans-serif">#12</text>
<text x="326.6" y="353" text-anchor="middle" font-size="10" fill="#656d76" font-family="-apple-system,BlinkMacSystemFont,Segoe UI,sans-serif">#21</text>
<text x="455.0" y="353" text-anchor="middle" font-size="10" fill="#656d76" font-family="-apple-system,BlinkMacSystemFont,Segoe UI,sans-serif">#30</text>
<text x="583.3" y="353" text-anchor="middle" font-size="10" fill="#656d76" font-family="-apple-system,BlinkMacSystemFont,Segoe UI,sans-serif">#41</text>
<text x="711.6" y="353" text-anchor="middle" font-size="10" fill="#656d76" font-family="-apple-system,BlinkMacSystemFont,Segoe UI,sans-serif">#50</text>
<text x="839.9" y="353" text-anchor="middle" font-size="10" fill="#656d76" font-family="-apple-system,BlinkMacSystemFont,Segoe UI,sans-serif">#71</text>
<text x="872.0" y="353" text-anchor="middle" font-size="10" fill="#656d76" font-family="-apple-system,BlinkMacSystemFont,Segoe UI,sans-serif">#76</text>
<polyline points="70.0,241.1 102.1,241.1 134.2,227.2 166.2,235.0 198.3,216.5 230.4,244.2 262.5,239.6 294.6,236.5 326.6,272.0 358.7,276.6 390.8,270.4 422.9,272.0 455.0,279.7 487.0,265.8 519.1,222.6 551.2,282.8 583.3,281.2 615.4,270.4 647.4,275.0 679.5,273.5 711.6,276.6 743.7,270.4 775.8,270.4 807.8,276.6 839.9,270.4 872.0,270.4" fill="none" stroke="#8250df" stroke-width="2.5" stroke-linecap="round" stroke-linejoin="round"/>
<circle cx="70.0" cy="241.1" r="3.3" fill="#8250df"/>
<circle cx="102.1" cy="241.1" r="3.3" fill="#8250df"/>
<circle cx="134.2" cy="227.2" r="3.3" fill="#8250df"/>
<circle cx="166.2" cy="235.0" r="3.3" fill="#8250df"/>
<circle cx="198.3" cy="216.5" r="3.3" fill="#8250df"/>
<circle cx="230.4" cy="244.2" r="3.3" fill="#8250df"/>
<circle cx="262.5" cy="239.6" r="3.3" fill="#8250df"/>
<circle cx="294.6" cy="236.5" r="3.3" fill="#8250df"/>
<circle cx="326.6" cy="272.0" r="3.3" fill="#8250df"/>
<circle cx="358.7" cy="276.6" r="3.3" fill="#8250df"/>
<circle cx="390.8" cy="270.4" r="3.3" fill="#8250df"/>
<circle cx="422.9" cy="272.0" r="3.3" fill="#8250df"/>
<circle cx="455.0" cy="279.7" r="3.3" fill="#8250df"/>
<circle cx="487.0" cy="265.8" r="3.3" fill="#8250df"/>
<circle cx="519.1" cy="222.6" r="3.3" fill="#8250df"/>
<circle cx="551.2" cy="282.8" r="3.3" fill="#8250df"/>
<circle cx="583.3" cy="281.2" r="3.3" fill="#8250df"/>
<circle cx="615.4" cy="270.4" r="3.3" fill="#8250df"/>
<circle cx="647.4" cy="275.0" r="3.3" fill="#8250df"/>
<circle cx="679.5" cy="273.5" r="3.3" fill="#8250df"/>
<circle cx="711.6" cy="276.6" r="3.3" fill="#8250df"/>
<circle cx="743.7" cy="270.4" r="3.3" fill="#8250df"/>
<circle cx="775.8" cy="270.4" r="3.3" fill="#8250df"/>
<circle cx="807.8" cy="276.6" r="3.3" fill="#8250df"/>
<circle cx="839.9" cy="270.4" r="3.3" fill="#8250df"/>
<circle cx="872.0" cy="270.4" r="3.3" fill="#8250df"/>
<text x="32" y="382" font-size="17" font-weight="600" fill="#1f2328" font-family="-apple-system,BlinkMacSystemFont,Segoe UI,sans-serif">Deploy AWS infrastructure</text>
<text x="872" y="382" text-anchor="end" font-size="13" font-weight="600" fill="#0969da" font-family="-apple-system,BlinkMacSystemFont,Segoe UI,sans-serif">Latest 9m 58s · #39</text>
<line x1="70" y1="607.0" x2="872" y2="607.0" stroke="#d8dee4" stroke-width="1"/>
<text x="60" y="611.0" text-anchor="end" font-size="11" fill="#656d76" font-family="-apple-system,BlinkMacSystemFont,Segoe UI,sans-serif">0s</text>
<line x1="70" y1="560.8" x2="872" y2="560.8" stroke="#d8dee4" stroke-width="1"/>
<text x="60" y="564.8" text-anchor="end" font-size="11" fill="#656d76" font-family="-apple-system,BlinkMacSystemFont,Segoe UI,sans-serif">180s</text>
<line x1="70" y1="514.5" x2="872" y2="514.5" stroke="#d8dee4" stroke-width="1"/>
<text x="60" y="518.5" text-anchor="end" font-size="11" fill="#656d76" font-family="-apple-system,BlinkMacSystemFont,Segoe UI,sans-serif">360s</text>
<line x1="70" y1="468.2" x2="872" y2="468.2" stroke="#d8dee4" stroke-width="1"/>
<text x="60" y="472.2" text-anchor="end" font-size="11" fill="#656d76" font-family="-apple-system,BlinkMacSystemFont,Segoe UI,sans-serif">540s</text>
<line x1="70" y1="422.0" x2="872" y2="422.0" stroke="#d8dee4" stroke-width="1"/>
<text x="60" y="426.0" text-anchor="end" font-size="11" fill="#656d76" font-family="-apple-system,BlinkMacSystemFont,Segoe UI,sans-serif">720s</text>
<text x="70.0" y="631" text-anchor="middle" font-size="10" fill="#656d76" font-family="-apple-system,BlinkMacSystemFont,Segoe UI,sans-serif">#3</text>
<text x="180.6" y="631" text-anchor="middle" font-size="10" fill="#656d76" font-family="-apple-system,BlinkMacSystemFont,Segoe UI,sans-serif">#8</text>
<text x="291.2" y="631" text-anchor="middle" font-size="10" fill="#656d76" font-family="-apple-system,BlinkMacSystemFont,Segoe UI,sans-serif">#13</text>
<text x="401.9" y="631" text-anchor="middle" font-size="10" fill="#656d76" font-family="-apple-system,BlinkMacSystemFont,Segoe UI,sans-serif">#22</text>
<text x="512.5" y="631" text-anchor="middle" font-size="10" fill="#656d76" font-family="-apple-system,BlinkMacSystemFont,Segoe UI,sans-serif">#26</text>
<text x="623.1" y="631" text-anchor="middle" font-size="10" fill="#656d76" font-family="-apple-system,BlinkMacSystemFont,Segoe UI,sans-serif">#30</text>
<text x="733.7" y="631" text-anchor="middle" font-size="10" fill="#656d76" font-family="-apple-system,BlinkMacSystemFont,Segoe UI,sans-serif">#34</text>
<text x="844.3" y="631" text-anchor="middle" font-size="10" fill="#656d76" font-family="-apple-system,BlinkMacSystemFont,Segoe UI,sans-serif">#38</text>
<text x="872.0" y="631" text-anchor="middle" font-size="10" fill="#656d76" font-family="-apple-system,BlinkMacSystemFont,Segoe UI,sans-serif">#39</text>
<polyline points="70.0,560.2 97.7,569.0 125.3,579.2 153.0,573.9 180.6,580.8 208.3,542.8 235.9,572.3 263.6,562.8 291.2,564.1 318.9,575.4 346.6,581.6 374.2,574.4 401.9,534.5 429.5,557.2 457.2,561.0 484.8,563.1 512.5,562.8 540.1,557.9 567.8,560.2 595.4,575.9 623.1,559.5 650.8,562.0 678.4,562.8 706.1,563.8 733.7,563.3 761.4,561.3 789.0,556.9 816.7,558.7 844.3,560.0 872.0,453.3" fill="none" stroke="#0969da" stroke-width="2.5" stroke-linecap="round" stroke-linejoin="round"/>
<circle cx="70.0" cy="560.2" r="3.3" fill="#0969da"/>
<circle cx="97.7" cy="569.0" r="3.3" fill="#0969da"/>
<circle cx="125.3" cy="579.2" r="3.3" fill="#0969da"/>
<circle cx="153.0" cy="573.9" r="3.3" fill="#0969da"/>
<circle cx="180.6" cy="580.8" r="3.3" fill="#0969da"/>
<circle cx="208.3" cy="542.8" r="3.3" fill="#0969da"/>
<circle cx="235.9" cy="572.3" r="3.3" fill="#0969da"/>
<circle cx="263.6" cy="562.8" r="3.3" fill="#0969da"/>
<circle cx="291.2" cy="564.1" r="3.3" fill="#0969da"/>
<circle cx="318.9" cy="575.4" r="3.3" fill="#0969da"/>
<circle cx="346.6" cy="581.6" r="3.3" fill="#0969da"/>
<circle cx="374.2" cy="574.4" r="3.3" fill="#0969da"/>
<circle cx="401.9" cy="534.5" r="3.3" fill="#0969da"/>
<circle cx="429.5" cy="557.2" r="3.3" fill="#0969da"/>
<circle cx="457.2" cy="561.0" r="3.3" fill="#0969da"/>
<circle cx="484.8" cy="563.1" r="3.3" fill="#0969da"/>
<circle cx="512.5" cy="562.8" r="3.3" fill="#0969da"/>
<circle cx="540.1" cy="557.9" r="3.3" fill="#0969da"/>
<circle cx="567.8" cy="560.2" r="3.3" fill="#0969da"/>
<circle cx="595.4" cy="575.9" r="3.3" fill="#0969da"/>
<circle cx="623.1" cy="559.5" r="3.3" fill="#0969da"/>
<circle cx="650.8" cy="562.0" r="3.3" fill="#0969da"/>
<circle cx="678.4" cy="562.8" r="3.3" fill="#0969da"/>
<circle cx="706.1" cy="563.8" r="3.3" fill="#0969da"/>
<circle cx="733.7" cy="563.3" r="3.3" fill="#0969da"/>
<circle cx="761.4" cy="561.3" r="3.3" fill="#0969da"/>
<circle cx="789.0" cy="556.9" r="3.3" fill="#0969da"/>
<circle cx="816.7" cy="558.7" r="3.3" fill="#0969da"/>
<circle cx="844.3" cy="560.0" r="3.3" fill="#0969da"/>
<circle cx="872.0" cy="453.3" r="3.3" fill="#0969da"/>
<text x="876" y="634" text-anchor="end" font-size="10" fill="#8c959f" font-family="-apple-system,BlinkMacSystemFont,Segoe UI,sans-serif">Updated 2026-09-11 10:36 UTC</text>
</svg>
