<svg xmlns="http://www.w3.org/2000/svg" width="900" height="650" viewBox="0 0 900 650" role="img" aria-labelledby="title desc">
<title id="title">CI performance history</title>
<desc id="desc">Recent successful main branch durations for Lambda tests and Deploy AWS infrastructure.</desc>
<rect width="100%" height="100%" rx="12" fill="#ffffff" stroke="#d0d7de"/>
<text x="32" y="38" font-size="21" font-weight="600" fill="#1f2328" font-family="-apple-system,BlinkMacSystemFont,Segoe UI,sans-serif">CI performance</text>
<text x="32" y="61" font-size="12" fill="#656d76" font-family="-apple-system,BlinkMacSystemFont,Segoe UI,sans-serif">Latest up to 30 successful main runs · workflow duration in seconds</text>
<text x="32" y="104" font-size="17" font-weight="600" fill="#1f2328" font-family="-apple-system,BlinkMacSystemFont,Segoe UI,sans-serif">Lambda tests</text>
<text x="872" y="104" text-anchor="end" font-size="13" font-weight="600" fill="#8250df" font-family="-apple-system,BlinkMacSystemFont,Segoe UI,sans-serif">Latest 31s · #41</text>
<line x1="70" y1="329.0" x2="872" y2="329.0" stroke="#d8dee4" stroke-width="1"/>
<text x="60" y="333.0" text-anchor="end" font-size="11" fill="#656d76" font-family="-apple-system,BlinkMacSystemFont,Segoe UI,sans-serif">0s</text>
<line x1="70" y1="282.8" x2="872" y2="282.8" stroke="#d8dee4" stroke-width="1"/>
<text x="60" y="286.8" text-anchor="end" font-size="11" fill="#656d76" font-family="-apple-system,BlinkMacSystemFont,Segoe UI,sans-serif">30s</text>
<line x1="70" y1="236.5" x2="872" y2="236.5" stroke="#d8dee4" stroke-width="1"/>
<text x="60" y="240.5" text-anchor="end" font-size="11" fill="#656d76" font-family="-apple-system,BlinkMacSystemFont,Segoe UI,sans-serif">60s</text>
<line x1="70" y1="190.2" x2="872" y2="190.2" stroke="#d8dee4" stroke-width="1"/>
<text x="60" y="194.2" text-anchor="end" font-size="11" fill="#656d76" font-family="-apple-system,BlinkMacSystemFont,Segoe UI,sans-serif">90s</text>
<line x1="70" y1="144.0" x2="872" y2="144.0" stroke="#d8dee4" stroke-width="1"/>
<text x="60" y="148.0" text-anchor="end" font-size="11" fill="#656d76" font-family="-apple-system,BlinkMacSystemFont,Segoe UI,sans-serif">120s</text>
<text x="70.0" y="353" text-anchor="middle" font-size="10" fill="#656d76" font-family="-apple-system,BlinkMacSystemFont,Segoe UI,sans-serif">#3</text>
<text x="220.4" y="353" text-anchor="middle" font-size="10" fill="#656d76" font-family="-apple-system,BlinkMacSystemFont,Segoe UI,sans-serif">#10</text>
<text x="370.8" y="353" text-anchor="middle" font-size="10" fill="#656d76" font-family="-apple-system,BlinkMacSystemFont,Segoe UI,sans-serif">#17</text>
<text x="521.1" y="353" text-anchor="middle" font-size="10" fill="#656d76" font-family="-apple-system,BlinkMacSystemFont,Segoe UI,sans-serif">#23</text>
<text x="671.5" y="353" text-anchor="middle" font-size="10" fill="#656d76" font-family="-apple-system,BlinkMacSystemFont,Segoe UI,sans-serif">#30</text>
<text x="821.9" y="353" text-anchor="middle" font-size="10" fill="#656d76" font-family="-apple-system,BlinkMacSystemFont,Segoe UI,sans-serif">#39</text>
<text x="872.0" y="353" text-anchor="middle" font-size="10" fill="#656d76" font-family="-apple-system,BlinkMacSystemFont,Segoe UI,sans-serif">#41</text>
<polyline points="70.0,241.1 120.1,241.1 170.2,227.2 220.4,235.0 270.5,216.5 320.6,244.2 370.8,239.6 420.9,236.5 471.0,272.0 521.1,276.6 571.2,270.4 621.4,272.0 671.5,279.7 721.6,265.8 771.8,222.6 821.9,282.8 872.0,281.2" fill="none" stroke="#8250df" stroke-width="2.5" stroke-linecap="round" stroke-linejoin="round"/>
<circle cx="70.0" cy="241.1" r="3.3" fill="#8250df"/>
<circle cx="120.1" cy="241.1" r="3.3" fill="#8250df"/>
<circle cx="170.2" cy="227.2" r="3.3" fill="#8250df"/>
<circle cx="220.4" cy="235.0" r="3.3" fill="#8250df"/>
<circle cx="270.5" cy="216.5" r="3.3" fill="#8250df"/>
<circle cx="320.6" cy="244.2" r="3.3" fill="#8250df"/>
<circle cx="370.8" cy="239.6" r="3.3" fill="#8250df"/>
<circle cx="420.9" cy="236.5" r="3.3" fill="#8250df"/>
<circle cx="471.0" cy="272.0" r="3.3" fill="#8250df"/>
<circle cx="521.1" cy="276.6" r="3.3" fill="#8250df"/>
<circle cx="571.2" cy="270.4" r="3.3" fill="#8250df"/>
<circle cx="621.4" cy="272.0" r="3.3" fill="#8250df"/>
<circle cx="671.5" cy="279.7" r="3.3" fill="#8250df"/>
<circle cx="721.6" cy="265.8" r="3.3" fill="#8250df"/>
<circle cx="771.8" cy="222.6" r="3.3" fill="#8250df"/>
<circle cx="821.9" cy="282.8" r="3.3" fill="#8250df"/>
<circle cx="872.0" cy="281.2" r="3.3" fill="#8250df"/>
<text x="32" y="382" font-size="17" font-weight="600" fill="#1f2328" font-family="-apple-system,BlinkMacSystemFont,Segoe UI,sans-serif">Deploy AWS infrastructure</text>
<text x="872" y="382" text-anchor="end" font-size="13" font-weight="600" fill="#0969da" font-family="-apple-system,BlinkMacSystemFont,Segoe UI,sans-serif">Latest 2m 51s · #25</text>
<line x1="70" y1="607.0" x2="872" y2="607.0" stroke="#d8dee4" stroke-width="1"/>
<text x="60" y="611.0" text-anchor="end" font-size="11" fill="#656d76" font-family="-apple-system,BlinkMacSystemFont,Segoe UI,sans-serif">0s</text>
<line x1="70" y1="560.8" x2="872" y2="560.8" stroke="#d8dee4" stroke-width="1"/>
<text x="60" y="564.8" text-anchor="end" font-size="11" fill="#656d76" font-family="-apple-system,BlinkMacSystemFont,Segoe UI,sans-serif">90s</text>
<line x1="70" y1="514.5" x2="872" y2="514.5" stroke="#d8dee4" stroke-width="1"/>
<text x="60" y="518.5" text-anchor="end" font-size="11" fill="#656d76" font-family="-apple-system,BlinkMacSystemFont,Segoe UI,sans-serif">180s</text>
<line x1="70" y1="468.2" x2="872" y2="468.2" stroke="#d8dee4" stroke-width="1"/>
<text x="60" y="472.2" text-anchor="end" font-size="11" fill="#656d76" font-family="-apple-system,BlinkMacSystemFont,Segoe UI,sans-serif">270s</text>
<line x1="70" y1="422.0" x2="872" y2="422.0" stroke="#d8dee4" stroke-width="1"/>
<text x="60" y="426.0" text-anchor="end" font-size="11" fill="#656d76" font-family="-apple-system,BlinkMacSystemFont,Segoe UI,sans-serif">360s</text>
<text x="70.0" y="631" text-anchor="middle" font-size="10" fill="#656d76" font-family="-apple-system,BlinkMacSystemFont,Segoe UI,sans-serif">#1</text>
<text x="211.5" y="631" text-anchor="middle" font-size="10" fill="#656d76" font-family="-apple-system,BlinkMacSystemFont,Segoe UI,sans-serif">#5</text>
<text x="353.1" y="631" text-anchor="middle" font-size="10" fill="#656d76" font-family="-apple-system,BlinkMacSystemFont,Segoe UI,sans-serif">#8</text>
<text x="494.6" y="631" text-anchor="middle" font-size="10" fill="#656d76" font-family="-apple-system,BlinkMacSystemFont,Segoe UI,sans-serif">#12</text>
<text x="636.1" y="631" text-anchor="middle" font-size="10" fill="#656d76" font-family="-apple-system,BlinkMacSystemFont,Segoe UI,sans-serif">#16</text>
<text x="777.6" y="631" text-anchor="middle" font-size="10" fill="#656d76" font-family="-apple-system,BlinkMacSystemFont,Segoe UI,sans-serif">#23</text>
<text x="872.0" y="631" text-anchor="middle" font-size="10" fill="#656d76" font-family="-apple-system,BlinkMacSystemFont,Segoe UI,sans-serif">#25</text>
<polyline points="70.0,542.8 117.2,521.7 164.4,513.5 211.5,530.9 258.7,551.5 305.9,540.7 353.1,554.6 400.2,478.5 447.4,537.6 494.6,518.6 541.8,521.2 588.9,543.8 636.1,556.1 683.3,541.7 730.5,462.1 777.6,507.3 824.8,515.0 872.0,519.1" fill="none" stroke="#0969da" stroke-width="2.5" stroke-linecap="round" stroke-linejoin="round"/>
<circle cx="70.0" cy="542.8" r="3.3" fill="#0969da"/>
<circle cx="117.2" cy="521.7" r="3.3" fill="#0969da"/>
<circle cx="164.4" cy="513.5" r="3.3" fill="#0969da"/>
<circle cx="211.5" cy="530.9" r="3.3" fill="#0969da"/>
<circle cx="258.7" cy="551.5" r="3.3" fill="#0969da"/>
<circle cx="305.9" cy="540.7" r="3.3" fill="#0969da"/>
<circle cx="353.1" cy="554.6" r="3.3" fill="#0969da"/>
<circle cx="400.2" cy="478.5" r="3.3" fill="#0969da"/>
<circle cx="447.4" cy="537.6" r="3.3" fill="#0969da"/>
<circle cx="494.6" cy="518.6" r="3.3" fill="#0969da"/>
<circle cx="541.8" cy="521.2" r="3.3" fill="#0969da"/>
<circle cx="588.9" cy="543.8" r="3.3" fill="#0969da"/>
<circle cx="636.1" cy="556.1" r="3.3" fill="#0969da"/>
<circle cx="683.3" cy="541.7" r="3.3" fill="#0969da"/>
<circle cx="730.5" cy="462.1" r="3.3" fill="#0969da"/>
<circle cx="777.6" cy="507.3" r="3.3" fill="#0969da"/>
<circle cx="824.8" cy="515.0" r="3.3" fill="#0969da"/>
<circle cx="872.0" cy="519.1" r="3.3" fill="#0969da"/>
<text x="876" y="634" text-anchor="end" font-size="10" fill="#8c959f" font-family="-apple-system,BlinkMacSystemFont,Segoe UI,sans-serif">Updated 2026-09-11 03:07 UTC</text>
</svg>
