<svg xmlns="http://www.w3.org/2000/svg" width="900" height="650" viewBox="0 0 900 650" role="img" aria-labelledby="title desc">
<title id="title">CI performance history</title>
<desc id="desc">Recent successful main branch durations for Lambda tests and Deploy AWS infrastructure.</desc>
<rect width="100%" height="100%" rx="12" fill="#ffffff" stroke="#d0d7de"/>
<text x="32" y="38" font-size="21" font-weight="600" fill="#1f2328" font-family="-apple-system,BlinkMacSystemFont,Segoe UI,sans-serif">CI performance</text>
<text x="32" y="61" font-size="12" fill="#656d76" font-family="-apple-system,BlinkMacSystemFont,Segoe UI,sans-serif">Latest up to 30 successful main runs · workflow duration in seconds</text>
<text x="32" y="104" font-size="17" font-weight="600" fill="#1f2328" font-family="-apple-system,BlinkMacSystemFont,Segoe UI,sans-serif">Lambda tests</text>
<text x="872" y="104" text-anchor="end" font-size="13" font-weight="600" fill="#8250df" font-family="-apple-system,BlinkMacSystemFont,Segoe UI,sans-serif">Latest 41s · #32</text>
<line x1="70" y1="329.0" x2="872" y2="329.0" stroke="#d8dee4" stroke-width="1"/>
<text x="60" y="333.0" text-anchor="end" font-size="11" fill="#656d76" font-family="-apple-system,BlinkMacSystemFont,Segoe UI,sans-serif">0s</text>
<line x1="70" y1="282.8" x2="872" y2="282.8" stroke="#d8dee4" stroke-width="1"/>
<text x="60" y="286.8" text-anchor="end" font-size="11" fill="#656d76" font-family="-apple-system,BlinkMacSystemFont,Segoe UI,sans-serif">30s</text>
<line x1="70" y1="236.5" x2="872" y2="236.5" stroke="#d8dee4" stroke-width="1"/>
<text x="60" y="240.5" text-anchor="end" font-size="11" fill="#656d76" font-family="-apple-system,BlinkMacSystemFont,Segoe UI,sans-serif">60s</text>
<line x1="70" y1="190.2" x2="872" y2="190.2" stroke="#d8dee4" stroke-width="1"/>
<text x="60" y="194.2" text-anchor="end" font-size="11" fill="#656d76" font-family="-apple-system,BlinkMacSystemFont,Segoe UI,sans-serif">90s</text>
<line x1="70" y1="144.0" x2="872" y2="144.0" stroke="#d8dee4" stroke-width="1"/>
<text x="60" y="148.0" text-anchor="end" font-size="11" fill="#656d76" font-family="-apple-system,BlinkMacSystemFont,Segoe UI,sans-serif">120s</text>
<text x="70.0" y="353" text-anchor="middle" font-size="10" fill="#656d76" font-family="-apple-system,BlinkMacSystemFont,Segoe UI,sans-serif">#3</text>
<text x="193.4" y="353" text-anchor="middle" font-size="10" fill="#656d76" font-family="-apple-system,BlinkMacSystemFont,Segoe UI,sans-serif">#8</text>
<text x="316.8" y="353" text-anchor="middle" font-size="10" fill="#656d76" font-family="-apple-system,BlinkMacSystemFont,Segoe UI,sans-serif">#12</text>
<text x="440.2" y="353" text-anchor="middle" font-size="10" fill="#656d76" font-family="-apple-system,BlinkMacSystemFont,Segoe UI,sans-serif">#17</text>
<text x="563.5" y="353" text-anchor="middle" font-size="10" fill="#656d76" font-family="-apple-system,BlinkMacSystemFont,Segoe UI,sans-serif">#21</text>
<text x="686.9" y="353" text-anchor="middle" font-size="10" fill="#656d76" font-family="-apple-system,BlinkMacSystemFont,Segoe UI,sans-serif">#25</text>
<text x="810.3" y="353" text-anchor="middle" font-size="10" fill="#656d76" font-family="-apple-system,BlinkMacSystemFont,Segoe UI,sans-serif">#30</text>
<text x="872.0" y="353" text-anchor="middle" font-size="10" fill="#656d76" font-family="-apple-system,BlinkMacSystemFont,Segoe UI,sans-serif">#32</text>
<polyline points="70.0,241.1 131.7,241.1 193.4,227.2 255.1,235.0 316.8,216.5 378.5,244.2 440.2,239.6 501.8,236.5 563.5,272.0 625.2,276.6 686.9,270.4 748.6,272.0 810.3,279.7 872.0,265.8" fill="none" stroke="#8250df" stroke-width="2.5" stroke-linecap="round" stroke-linejoin="round"/>
<circle cx="70.0" cy="241.1" r="3.3" fill="#8250df"/>
<circle cx="131.7" cy="241.1" r="3.3" fill="#8250df"/>
<circle cx="193.4" cy="227.2" r="3.3" fill="#8250df"/>
<circle cx="255.1" cy="235.0" r="3.3" fill="#8250df"/>
<circle cx="316.8" cy="216.5" r="3.3" fill="#8250df"/>
<circle cx="378.5" cy="244.2" r="3.3" fill="#8250df"/>
<circle cx="440.2" cy="239.6" r="3.3" fill="#8250df"/>
<circle cx="501.8" cy="236.5" r="3.3" fill="#8250df"/>
<circle cx="563.5" cy="272.0" r="3.3" fill="#8250df"/>
<circle cx="625.2" cy="276.6" r="3.3" fill="#8250df"/>
<circle cx="686.9" cy="270.4" r="3.3" fill="#8250df"/>
<circle cx="748.6" cy="272.0" r="3.3" fill="#8250df"/>
<circle cx="810.3" cy="279.7" r="3.3" fill="#8250df"/>
<circle cx="872.0" cy="265.8" r="3.3" fill="#8250df"/>
<text x="32" y="382" font-size="17" font-weight="600" fill="#1f2328" font-family="-apple-system,BlinkMacSystemFont,Segoe UI,sans-serif">Deploy AWS infrastructure</text>
<text x="872" y="382" text-anchor="end" font-size="13" font-weight="600" fill="#0969da" font-family="-apple-system,BlinkMacSystemFont,Segoe UI,sans-serif">Latest 4m 42s · #22</text>
<line x1="70" y1="607.0" x2="872" y2="607.0" stroke="#d8dee4" stroke-width="1"/>
<text x="60" y="611.0" text-anchor="end" font-size="11" fill="#656d76" font-family="-apple-system,BlinkMacSystemFont,Segoe UI,sans-serif">0s</text>
<line x1="70" y1="560.8" x2="872" y2="560.8" stroke="#d8dee4" stroke-width="1"/>
<text x="60" y="564.8" text-anchor="end" font-size="11" fill="#656d76" font-family="-apple-system,BlinkMacSystemFont,Segoe UI,sans-serif">90s</text>
<line x1="70" y1="514.5" x2="872" y2="514.5" stroke="#d8dee4" stroke-width="1"/>
<text x="60" y="518.5" text-anchor="end" font-size="11" fill="#656d76" font-family="-apple-system,BlinkMacSystemFont,Segoe UI,sans-serif">180s</text>
<line x1="70" y1="468.2" x2="872" y2="468.2" stroke="#d8dee4" stroke-width="1"/>
<text x="60" y="472.2" text-anchor="end" font-size="11" fill="#656d76" font-family="-apple-system,BlinkMacSystemFont,Segoe UI,sans-serif">270s</text>
<line x1="70" y1="422.0" x2="872" y2="422.0" stroke="#d8dee4" stroke-width="1"/>
<text x="60" y="426.0" text-anchor="end" font-size="11" fill="#656d76" font-family="-apple-system,BlinkMacSystemFont,Segoe UI,sans-serif">360s</text>
<text x="70.0" y="631" text-anchor="middle" font-size="10" fill="#656d76" font-family="-apple-system,BlinkMacSystemFont,Segoe UI,sans-serif">#1</text>
<text x="184.6" y="631" text-anchor="middle" font-size="10" fill="#656d76" font-family="-apple-system,BlinkMacSystemFont,Segoe UI,sans-serif">#3</text>
<text x="299.1" y="631" text-anchor="middle" font-size="10" fill="#656d76" font-family="-apple-system,BlinkMacSystemFont,Segoe UI,sans-serif">#6</text>
<text x="413.7" y="631" text-anchor="middle" font-size="10" fill="#656d76" font-family="-apple-system,BlinkMacSystemFont,Segoe UI,sans-serif">#8</text>
<text x="528.3" y="631" text-anchor="middle" font-size="10" fill="#656d76" font-family="-apple-system,BlinkMacSystemFont,Segoe UI,sans-serif">#11</text>
<text x="642.9" y="631" text-anchor="middle" font-size="10" fill="#656d76" font-family="-apple-system,BlinkMacSystemFont,Segoe UI,sans-serif">#13</text>
<text x="757.4" y="631" text-anchor="middle" font-size="10" fill="#656d76" font-family="-apple-system,BlinkMacSystemFont,Segoe UI,sans-serif">#16</text>
<text x="872.0" y="631" text-anchor="middle" font-size="10" fill="#656d76" font-family="-apple-system,BlinkMacSystemFont,Segoe UI,sans-serif">#22</text>
<polyline points="70.0,542.8 127.3,521.7 184.6,513.5 241.9,530.9 299.1,551.5 356.4,540.7 413.7,554.6 471.0,478.5 528.3,537.6 585.6,518.6 642.9,521.2 700.1,543.8 757.4,556.1 814.7,541.7 872.0,462.1" fill="none" stroke="#0969da" stroke-width="2.5" stroke-linecap="round" stroke-linejoin="round"/>
<circle cx="70.0" cy="542.8" r="3.3" fill="#0969da"/>
<circle cx="127.3" cy="521.7" r="3.3" fill="#0969da"/>
<circle cx="184.6" cy="513.5" r="3.3" fill="#0969da"/>
<circle cx="241.9" cy="530.9" r="3.3" fill="#0969da"/>
<circle cx="299.1" cy="551.5" r="3.3" fill="#0969da"/>
<circle cx="356.4" cy="540.7" r="3.3" fill="#0969da"/>
<circle cx="413.7" cy="554.6" r="3.3" fill="#0969da"/>
<circle cx="471.0" cy="478.5" r="3.3" fill="#0969da"/>
<circle cx="528.3" cy="537.6" r="3.3" fill="#0969da"/>
<circle cx="585.6" cy="518.6" r="3.3" fill="#0969da"/>
<circle cx="642.9" cy="521.2" r="3.3" fill="#0969da"/>
<circle cx="700.1" cy="543.8" r="3.3" fill="#0969da"/>
<circle cx="757.4" cy="556.1" r="3.3" fill="#0969da"/>
<circle cx="814.7" cy="541.7" r="3.3" fill="#0969da"/>
<circle cx="872.0" cy="462.1" r="3.3" fill="#0969da"/>
<text x="876" y="634" text-anchor="end" font-size="10" fill="#8c959f" font-family="-apple-system,BlinkMacSystemFont,Segoe UI,sans-serif">Updated 2026-09-11 02:38 UTC</text>
</svg>
